<svg xmlns="http://www.w3.org/2000/svg" viewBox="0 0 811.99 359.33"><defs><style>.cls-1{font-size:200px;fill:#333;font-family:AlienEncountersSolid, Alien Encounters Solid;}.cls-2{fill:#f2643d;}</style></defs><g id="Camada_2" data-name="Camada 2"><g id="Camada_1-2" data-name="Camada 1"><text class="cls-1" transform="translate(0 170)">BASKET</text><text class="cls-1" transform="translate(0.67 343.33)"><tspan xml:space="preserve">n    w!</tspan></text><g id="CLOCK"><path class="cls-2" d="M128.44,264.91c1-1.93,2.85-2.57,5.39-2.56,14.18.06,28.36,0,42.54.06,1.58,0,2.26-.39,2.88-1.6,1.74-3.45,3.75-6.8,5.65-10.19.26-.45.54-.9.95-1.57H162.29c-3.2,0-5.19-1.37-5.14-3.49s2-3.4,5.07-3.41c9.27,0,18.53,0,27.8,0a4.18,4.18,0,0,0,2.61-1c12.19-12.1,27.44-20.22,46.07-24,1.18-.23,1.76-.61,1.7-1.71-.12-2.07-.09-4.15,0-6.22,0-.91-.4-1.28-1.38-1.61-6.82-2.24-10.57-7.5-9.34-13,1.3-5.83,7.14-9.77,14.68-9.79,9.61,0,19.23,0,28.85,0,7.82,0,13.64,3.8,15,9.68s-2.49,11-9.89,13.34l-.63.22v8.23c6.22,1.94,12.47,3.4,18.18,5.74C323,233.2,339,251.24,343.29,275.91c2.9,16.64-1.68,32.11-12.45,46.38a4.66,4.66,0,0,1-4.69,2c-1.85-.27-3.21-1.27-3.29-2.75a5.55,5.55,0,0,1,1.21-3.34,57.8,57.8,0,0,0,10.23-21.58c7.05-29.93-13.47-59.89-48.36-70.63-37.41-11.51-79.55,2.6-96.41,32.28-20.27,35.71,3.91,77.7,50.52,87.38,21,4.36,40.9,1.82,59.47-7.43.42-.2.83-.43,1.26-.62,2.26-1,4.66-.56,5.89,1.11s.64,3.62-1.54,4.78a91.85,91.85,0,0,1-25.76,9.1c-41.55,8.12-82.84-9.18-99.12-41.53-.6-1.19-1.38-1.48-2.82-1.47-8.7,0-17.41,0-26.11,0a19.06,19.06,0,0,1-2.73-.13,3.3,3.3,0,0,1-.15-6.6,15.35,15.35,0,0,1,2.72-.17h24c.41,0,.82,0,1.33-.08-.85-4.36-1.69-8.64-2.58-13.19h-2c-5.26,0-10.53,0-15.79,0-3,0-4.94-1.43-4.88-3.53s1.94-3.36,4.88-3.37h17.69l2.07-13.24h-2.38c-13,0-26,0-39,0-2.58,0-4.65-.49-6.06-2.34Zm130.46-63.5c4.84,0,9.67,0,14.51,0,3.91,0,6.57-2,6.61-4.76s-2.64-4.88-6.5-4.89q-14.61-.06-29.23,0c-3.85,0-6.43,2.11-6.35,5s2.61,4.66,6.45,4.68C249.23,201.43,254.06,201.41,258.9,201.41ZM269,215.33v-6.92H249v6.92Z"/><path class="cls-2" d="M128.44,305c.29-.3.58-.6.88-.89a4.84,4.84,0,0,1,6.27-.36,3,3,0,0,1-.19,5,4.82,4.82,0,0,1-6.21-.67c-.28-.33-.5-.68-.75-1Z"/><path class="cls-2" d="M259.12,231.29c36.16.11,65.3,24.1,65.21,53.69s-29.57,53.62-65.52,53.48-65.26-24.27-65.11-53.82S223.2,231.19,259.12,231.29Zm56.79,53.56c0-25.78-25.47-46.65-56.9-46.64s-56.88,20.88-56.88,46.65,25.56,46.7,56.9,46.69S315.93,310.57,315.91,284.85Z"/><path class="cls-2" d="M312.05,331.7c0-1.89,1.85-3.36,4.17-3.35s4.18,1.52,4.21,3.37-2,3.5-4.33,3.45S312,333.61,312.05,331.7Z"/><path class="cls-2" d="M245.89,284.39a7.54,7.54,0,0,1,.64-2.58c.87-1.43.22-2.26-1-3.21-2.47-1.88-4.82-3.87-7.17-5.85-2-1.72-2.15-3.73-.34-5.19s4.29-1.28,6.35.37c2.55,2.05,5.1,4.12,7.57,6.24a2.58,2.58,0,0,0,2.88.58,14.08,14.08,0,0,1,8.45,0,2.61,2.61,0,0,0,2.88-.56c6.16-5.12,12.38-10.19,18.59-15.28a11.41,11.41,0,0,1,1.74-1.24,4.82,4.82,0,0,1,5.2.52,3,3,0,0,1,.45,4.29,13.2,13.2,0,0,1-1.7,1.53c-6,5-12.09,9.95-18.18,14.89-1,.79-1.35,1.4-.85,2.63,1.74,4.35.48,8.25-3.67,11.29a14.31,14.31,0,0,1-14.09,1.77C248.54,292.67,246.1,289.23,245.89,284.39Zm13-3.31c-2.6,0-4.61,1.78-4.53,3.91s2.18,3.7,4.64,3.69,4.66-1.76,4.63-3.86S261.53,281,258.91,281.08Z"/><path class="cls-2" d="M263.25,249.62c0,.52,0,1,0,1.55-.14,1.92-1.73,3.27-3.93,3.37s-4.2-1.21-4.42-3.15a17.6,17.6,0,0,1,0-3.77c.23-1.94,2.15-3.22,4.45-3.11s3.76,1.45,3.89,3.39C263.28,248.47,263.25,249.05,263.25,249.62Z"/><path class="cls-2" d="M302.18,281.47c.63,0,1.26,0,1.88,0,2.4.1,4.16,1.51,4.2,3.35s-1.65,3.35-4,3.51a32.39,32.39,0,0,1-4.18,0c-2.53-.15-4.15-1.65-4-3.63s1.78-3.16,4.29-3.24C300.92,281.45,301.55,281.47,302.18,281.47Z"/><path class="cls-2" d="M254.79,320.17c0-.57,0-1.14,0-1.71a3.88,3.88,0,0,1,4-3.31c2.16-.06,4.05,1.23,4.29,3.09a18,18,0,0,1,0,3.6,4.27,4.27,0,0,1-8.38-.12c0-.52,0-1,0-1.55Z"/><path class="cls-2" d="M216.05,281.43a22.23,22.23,0,0,1,2.31,0c2.14.19,3.59,1.5,3.67,3.21a3.38,3.38,0,0,1-3.3,3.46,27.47,27.47,0,0,1-5.44,0c-2.19-.21-3.64-1.82-3.51-3.52s1.71-3.05,4-3.21c.76-.05,1.54,0,2.31,0Z"/></g></g></g></svg>