<svg id="Camada_1" data-name="Camada 1" xmlns="http://www.w3.org/2000/svg" xmlns:xlink="http://www.w3.org/1999/xlink" viewBox="0 0 1920 980"><defs><style>.cls-1{fill:#121212;stroke:#000;stroke-miterlimit:10;}.cls-2{opacity:0.5;}.cls-3{fill:#f38630;}</style></defs><rect class="cls-1" x="-17.5" y="-17.5" width="1952" height="1013"/><image width="5461" height="8192" transform="translate(-13 -10) scale(0.14 0.12)" xlink:href="../../../../Downloads/pexels-tim-mossholder-1080884.jpg"/><rect class="cls-2" x="-48" y="-32" width="812" height="1042"/><path class="cls-3" d="M795.5-60.5c-37.52,47.58-36.24,89.15-37,274-.48,117.52-1.19,289-37,430-67.15,264.32-247.12,344.25-203,427,43,80.71,253,81.18,294.5,10.5,16.7-28.45-1.67-55.17-17-140-14.46-80-13-138.75-11-220,.8-32.25,6.09-179.23,74-356,35.31-91.9,74.39-193.64,166-290C1141.86-47.93,1245.76-58.56,1239-93,1227.43-151.95,907-202,795.5-60.5Z"/></svg>